REM DATE 2012
REM DISCID 7C0B320A
REM COMMENT "ExactAudioCopy v0.99pb5"
PERFORMER "Manowar"
TITLE "The Lord of Steel [Hammer ed.]"
FILE "Manowar - The Lord of Steel [Hammer ed.].flac" WAVE
  TRACK 01 AUDIO
    TITLE "The lord of steel "
    PERFORMER "Manowar"
    INDEX 01 00:00:00
  TRACK 02 AUDIO
    TITLE "Manowariors "
    PERFORMER "Manowar"
    INDEX 00 04:06:25
    INDEX 01 04:08:06
  TRACK 03 AUDIO
    TITLE "Born in a Grave"
    PERFORMER "Manowar"
    INDEX 00 08:52:41
    INDEX 01 08:54:42
  TRACK 04 AUDIO
    TITLE "Righteous glory"
    PERFORMER "Manowar"
    INDEX 00 14:39:24
    INDEX 01 14:41:45
  TRACK 05 AUDIO
    TITLE "Touch the sky"
    PERFORMER "Manowar"
    INDEX 00 20:49:55
    INDEX 01 20:51:54
  TRACK 06 AUDIO
    TITLE "Black list "
    PERFORMER "Manowar"
    INDEX 00 24:39:01
    INDEX 01 24:40:72
  TRACK 07 AUDIO
    TITLE "Expendable"
    PERFORMER "Manowar"
    INDEX 00 31:36:24
    INDEX 01 31:39:26
  TRACK 08 AUDIO
    TITLE "El gringo"
    PERFORMER "Manowar"
    INDEX 00 34:48:22
    INDEX 01 34:49:32
  TRACK 09 AUDIO
    TITLE "Annihilation "
    PERFORMER "Manowar"
    INDEX 00 39:46:11
    INDEX 01 39:47:12
  TRACK 10 AUDIO
    TITLE "Hail kill and die"
    PERFORMER "Manowar"
    INDEX 00 43:46:56
    INDEX 01 43:48:05
